<svg width="670" height="254" viewBox="0 0 670 254" fill="none" xmlns="http://www.w3.org/2000/svg">
<g clip-path="url(#clip0_18_1097)">
<g clip-path="url(#clip1_18_1097)">
<g style="mix-blend-mode:overlay">
<path d="M439.051 74.4102H427.86V85.5996H439.051V74.4102Z" fill="#FEB14B"/>
<path d="M387.154 144.289H375.962V155.478H387.154V144.289Z" fill="#FEB14B"/>
<path d="M41.5635 56.8762V44H54.4423V56.8762H41.5635ZM43.2506 45.6868V55.1895H52.7552V45.6868H43.2506Z" fill="#FEB14B"/>
<path d="M6.62061 56.8762V44H19.4994V56.8762H6.62061ZM8.30769 45.6868V55.1895H17.8124V45.6868H8.30769Z" fill="#FEB14B"/>
<path d="M6.62061 74.3477V61.4714H19.4994V74.3477H6.62061ZM8.30769 63.1582V72.6609H17.8124V63.1582H8.30769Z" fill="#FEB14B"/>
<path d="M41.5635 91.812V78.9358H54.4423V91.812H41.5635ZM43.2506 80.6225V90.1253H52.7552V80.6225H43.2506Z" fill="#FEB14B"/>
<path d="M53.6023 97.2471H42.4105V108.437H53.6023V97.2471Z" fill="#FEB14B"/>
<path d="M18.6593 97.2471H7.46753V108.437H18.6593V97.2471Z" fill="#FEB14B"/>
<path d="M53.6023 114.719H42.4105V125.908H53.6023V114.719Z" fill="#FEB14B"/>
<path d="M36.1273 114.719H24.9355V125.908H36.1273V114.719Z" fill="#FEB14B"/>
<path d="M18.6593 114.719H7.46753V125.908H18.6593V114.719Z" fill="#FEB14B"/>
<path d="M333.153 132.183H321.961V143.373H333.153V132.183Z" fill="#FEB14B"/>
<path d="M36.1273 132.183H24.9355V143.373H36.1273V132.183Z" fill="#FEB14B"/>
<path d="M286.171 161.684V148.808H299.05V161.684H286.171ZM287.858 150.494V159.997H297.363V150.494H287.858Z" fill="#FEB14B"/>
<path d="M251.228 161.684V148.808H264.107V161.684H251.228ZM252.915 150.494V159.997H262.42V150.494H252.915Z" fill="white"/>
<path d="M216.285 161.684V148.808H229.164V161.684H216.285ZM217.972 150.494V159.997H227.477V150.494H217.972Z" fill="#FEB14B"/>
<path d="M106.02 149.654H94.8285V160.844H106.02V149.654Z" fill="#FEB14B"/>
<path d="M88.5453 149.654H77.3535V160.844H88.5453V149.654Z" fill="#FEB14B"/>
<path d="M53.6023 149.654H42.4105V160.844H53.6023V149.654Z" fill="#FEB14B"/>
<path d="M36.1273 149.654H24.9355V160.844H36.1273V149.654Z" fill="#FEB14B"/>
<path d="M18.6593 149.654H7.46753V160.844H18.6593V149.654Z" fill="white" fill-opacity="0.5"/>
<path d="M303.646 179.155V166.279H316.525V179.155H303.646ZM305.333 167.966V177.469H314.838V167.966H305.333Z" fill="#FEB14B"/>
<path d="M251.228 179.155V166.279H264.107V179.155H251.228ZM252.915 167.966V177.469H262.42V167.966H252.915Z" fill="#FEB14B"/>
<path d="M123.488 167.119H112.297V178.308H123.488V167.119Z" fill="#FEB14B"/>
<path d="M106.02 167.119H94.8285V178.308H106.02V167.119Z" fill="#FEB14B"/>
<path d="M36.1273 167.119H24.9355V178.308H36.1273V167.119Z" fill="#FEB14B"/>
<path d="M18.6593 167.119H7.46753V178.308H18.6593V167.119Z" fill="#FEB14B"/>
<path d="M368.096 184.59H356.904V195.78H368.096V184.59Z" fill="#FEB14B"/>
<path d="M350.621 184.59H339.429V195.78H350.621V184.59Z" fill="#FEB14B"/>
<path d="M333.153 184.59H321.961V195.78H333.153V184.59Z" fill="#FEB14B"/>
<path d="M315.678 184.59H304.486V195.78H315.678V184.59Z" fill="#FEB14B"/>
<path d="M298.21 184.59H287.018V195.78H298.21V184.59Z" fill="#FEB14B"/>
<path d="M280.735 184.59H269.543V195.78H280.735V184.59Z" fill="#FEB14B"/>
<path d="M263.26 184.59H252.068V195.78H263.26V184.59Z" fill="#FEB14B"/>
<path d="M245.792 184.59H234.6V195.78H245.792V184.59Z" fill="#FEB14B"/>
<path d="M228.317 184.59H217.125V195.78H228.317V184.59Z" fill="#FEB14B"/>
<path d="M1.18445 184.59H-10.0073V195.78H1.18445V184.59Z" fill="#FEB14B"/>
<path d="M321.114 214.091V201.215H333.993V214.091H321.114ZM322.801 202.902V212.404H332.306V202.902H322.801Z" fill="white"/>
<path d="M315.678 202.062H304.486V213.251H315.678V202.062Z" fill="#FEB14B"/>
<path d="M280.735 202.062H269.543V213.251H280.735V202.062Z" fill="#FEB14B"/>
<path d="M245.792 202.062H234.6V213.251H245.792V202.062Z" fill="#FEB14B"/>
<path d="M228.317 202.062H217.125V213.251H228.317V202.062Z" fill="#FEB14B"/>
<path d="M298.21 219.526H287.018V230.716H298.21V219.526Z" fill="white" fill-opacity="0.5"/>
<path d="M280.735 219.526H269.543V230.716H280.735V219.526Z" fill="#FEB14B"/>
<path d="M228.317 219.526H217.125V230.716H228.317V219.526Z" fill="#FEB14B"/>
<path d="M24.0955 231.562V218.686H36.9743V231.562H24.0955ZM25.7825 220.373V229.876H35.2872V220.373H25.7825Z" fill="#FEB14B"/>
<path d="M18.6593 219.526H7.46753V230.716H18.6593V219.526Z" fill="#FEB14B"/>
<path d="M1.18445 219.526H-10.0073V230.716H1.18445V219.526Z" fill="#FEB14B"/>
<path d="M315.678 236.998H304.486V248.187H315.678V236.998Z" fill="#FEB14B"/>
<path d="M245.792 236.998H234.6V248.187H245.792V236.998Z" fill="white" fill-opacity="0.5"/>
<path d="M41.5635 249.027V236.151H54.4423V249.027H41.5635ZM43.2506 237.837V247.34H52.7552V237.837H43.2506Z" fill="#FEB14B"/>
<path d="M18.6593 236.998H7.46753V248.187H18.6593V236.998Z" fill="#FEB14B"/>
<path d="M1.18445 236.998H-10.0073V248.187H1.18445V236.998Z" fill="#FEB14B"/>
<path d="M41.5635 266.498V253.622H54.4423V266.498H41.5635ZM43.2506 255.309V264.812H52.7552V255.309H43.2506Z" fill="#FEB14B"/>
<path d="M24.0955 266.498V253.622H36.9743V266.498H24.0955ZM25.7825 255.309V264.812H35.2872V255.309H25.7825Z" fill="#FEB14B"/>
</g>
</g>
</g>
<defs>
<clipPath id="clip0_18_1097">
<rect width="720" height="304" fill="white" transform="translate(-50)"/>
</clipPath>
<clipPath id="clip1_18_1097">
<rect width="780" height="531" fill="white" transform="translate(-227 -41)"/>
</clipPath>
</defs>
</svg>
