<svg width="670" height="255" viewBox="0 0 670 255" fill="none" xmlns="http://www.w3.org/2000/svg">
<g clip-path="url(#clip0_18_750)">
<g clip-path="url(#clip1_18_750)">
<g style="mix-blend-mode:overlay">
<path d="M593.127 -10.1949H581.936V0.994519H593.127V-10.1949Z" fill="#FEB14B"/>
<path d="M575.659 -10.1949H564.468V0.994519H575.659V-10.1949Z" fill="#FEB14B"/>
<path d="M558.184 -10.1949H546.993V0.994519H558.184V-10.1949Z" fill="#FEB14B"/>
<path d="M540.716 -10.1949H529.525V0.994519H540.716V-10.1949Z" fill="#FEB14B"/>
<path d="M523.241 -10.1949H512.05V0.994519H523.241V-10.1949Z" fill="white" fill-opacity="0.5"/>
<path d="M505.773 -10.1949H494.582V0.994519H505.773V-10.1949Z" fill="#FEB14B"/>
<path d="M488.298 -10.1949H477.107V0.994519H488.298V-10.1949Z" fill="#FEB14B"/>
<path d="M453.355 -10.1949H442.164V0.994519H453.355V-10.1949Z" fill="#FEB14B"/>
<path d="M418.412 -10.1949H407.221V0.994519H418.412V-10.1949Z" fill="#FEB14B"/>
<path d="M680.488 7.26953H669.297V18.459H680.488V7.26953Z" fill="#FEB14B"/>
<path d="M628.07 7.26953H616.879V18.459H628.07V7.26953Z" fill="#FEB14B"/>
<path d="M593.127 7.26953H581.936V18.459H593.127V7.26953Z" fill="#FEB14B"/>
<path d="M558.184 7.26953H546.993V18.459H558.184V7.26953Z" fill="#FEB14B"/>
<path d="M540.716 7.26953H529.525V18.459H540.716V7.26953Z" fill="#FEB14B"/>
<path d="M523.241 7.26953H512.05V18.459H523.241V7.26953Z" fill="#FEB14B"/>
<path d="M505.773 7.26953H494.582V18.459H505.773V7.26953Z" fill="white" fill-opacity="0.5"/>
<path d="M490.951 4.62488H479.759V15.8143H490.951V4.62488Z" fill="#FEB14B"/>
<path d="M470.823 7.26953H459.632V18.459H470.823V7.26953Z" fill="#FEB14B"/>
<path d="M435.88 7.26953H424.689V18.459H435.88V7.26953Z" fill="#FEB14B"/>
<path d="M418.412 7.26953H407.221V18.459H418.412V7.26953Z" fill="#FEB14B"/>
<path d="M388.906 19.3059V6.42969H401.784V19.3059H388.906ZM390.593 8.11643V17.6192H400.097V8.11643H390.593Z" fill="white"/>
<path d="M383.469 7.26953H372.278V18.459H383.469V7.26953Z" fill="#FEB14B"/>
<path d="M680.488 24.741H669.297V35.9305H680.488V24.741Z" fill="#FEB14B"/>
<path d="M610.602 24.741H599.411V35.9305H610.602V24.741Z" fill="#FEB14B"/>
<path d="M595.779 22.0894H584.588V33.2788H595.779V22.0894Z" fill="#FEB14B"/>
<path d="M546.152 36.7772V23.901H559.031V36.7772H546.152ZM547.84 25.5877V35.0905H557.344V25.5877H547.84Z" fill="#FEB14B"/>
<path d="M493.735 36.7772V23.901H506.613V36.7772H493.735ZM495.422 25.5877V35.0905H504.926V25.5877H495.422Z" fill="#FEB14B"/>
<path d="M488.298 24.741H477.107V35.9305H488.298V24.741Z" fill="#FEB14B"/>
<path d="M470.823 24.741H459.632V35.9305H470.823V24.741Z" fill="#FEB14B"/>
<path d="M453.355 24.741H442.164V35.9305H453.355V24.741Z" fill="#FEB14B"/>
<path d="M435.88 24.741H424.689V35.9305H435.88V24.741Z" fill="#FEB14B"/>
<path d="M388.906 36.7772V23.901H401.784V36.7772H388.906ZM390.593 25.5877V35.0905H400.097V25.5877H390.593Z" fill="#FEB14B"/>
<path d="M680.488 42.2124H669.297V53.4019H680.488V42.2124Z" fill="#FEB14B"/>
<path d="M628.07 42.2124H616.879V53.4019H628.07V42.2124Z" fill="#FEB14B"/>
<path d="M613.254 39.5608H602.063V50.7503H613.254V39.5608Z" fill="#FEB14B"/>
<path d="M593.127 42.2124H581.936V53.4019H593.127V42.2124Z" fill="#FEB14B"/>
<path d="M575.659 42.2124H564.468V53.4019H575.659V42.2124Z" fill="#FEB14B"/>
<path d="M546.152 54.2417V41.3655H559.031V54.2417H546.152ZM547.84 43.0522V52.5549H557.344V43.0522H547.84Z" fill="#FEB14B"/>
<path d="M488.298 42.2124H477.107V53.4019H488.298V42.2124Z" fill="#FEB14B"/>
<path d="M441.317 54.2417V41.3655H454.195V54.2417H441.317ZM443.004 43.0522V52.5549H452.508V43.0522H443.004Z" fill="#FEB14B"/>
<path d="M388.906 54.2417V41.3655H401.784V54.2417H388.906ZM390.593 43.0522V52.5549H400.097V43.0522H390.593Z" fill="#FEB14B"/>
<path d="M371.431 54.2417V41.3655H384.309V54.2417H371.431ZM373.118 43.0522V52.5549H382.622V43.0522H373.118Z" fill="#FEB14B"/>
<path d="M593.127 59.6768H581.936V70.8662H593.127V59.6768Z" fill="#FEB14B"/>
<path d="M505.773 59.6768H494.582V70.8662H505.773V59.6768Z" fill="#FEB14B"/>
<path d="M488.298 59.6768H477.107V70.8662H488.298V59.6768Z" fill="#FEB14B"/>
<path d="M470.823 59.6768H459.632V70.8662H470.823V59.6768Z" fill="#FEB14B"/>
<path d="M441.317 71.7132V58.8369H454.195V71.7132H441.317ZM443.004 60.5237V70.0264H452.508V60.5237H443.004Z" fill="#FEB14B"/>
<path d="M423.849 71.7132V58.8369H436.727V71.7132H423.849ZM425.536 60.5237V70.0264H435.04V60.5237H425.536Z" fill="#FEB14B"/>
<path d="M663.02 77.1482H651.828V88.3377H663.02V77.1482Z" fill="#FEB14B"/>
<path d="M628.07 77.1482H616.879V88.3377H628.07V77.1482Z" fill="#FEB14B"/>
<path d="M581.096 89.1775V76.3013H593.974V89.1775H581.096ZM582.783 77.988V87.4907H592.287V77.988H582.783Z" fill="white"/>
<path d="M575.659 77.1482H564.468V88.3377H575.659V77.1482Z" fill="#FEB14B"/>
<path d="M541.05 223V210.124H553.928V223H541.05ZM542.737 211.811V221.313H552.241V211.811H542.737Z" fill="#FEB14B"/>
<path d="M511.21 89.1775V76.3013H524.088V89.1775H511.21ZM512.897 77.988V87.4907H522.401V77.988H512.897Z" fill="#FEB14B"/>
<path d="M493.735 89.1775V76.3013H506.613V89.1775H493.735ZM495.422 77.988V87.4907H504.926V77.988H495.422Z" fill="#FEB14B"/>
<path d="M476.26 89.1775V76.3013H489.138V89.1775H476.26ZM477.947 77.988V87.4907H487.451V77.988H477.947Z" fill="#FEB14B"/>
<path d="M423.849 89.1775V76.3013H436.727V89.1775H423.849ZM425.536 77.988V87.4907H435.04V77.988H425.536Z" fill="#FEB14B"/>
<path d="M680.488 94.6128H669.297V105.802H680.488V94.6128Z" fill="#FEB14B"/>
<path d="M663.02 94.6128H651.828V105.802H663.02V94.6128Z" fill="#FEB14B"/>
<path d="M630.722 91.968H619.531V103.157H630.722V91.968Z" fill="#FEB14B"/>
<path d="M610.602 94.6128H599.411V105.802H610.602V94.6128Z" fill="#FEB14B"/>
<path d="M575.659 94.6128H564.468V105.802H575.659V94.6128Z" fill="#FEB14B"/>
<path d="M546.152 106.649V93.7727H559.031V106.649H546.152ZM547.84 95.4595V104.962H557.344V95.4595H547.84Z" fill="#FEB14B"/>
<path d="M528.678 106.649V93.7727H541.556V106.649H528.678ZM530.365 95.4595V104.962H539.869V95.4595H530.365Z" fill="white"/>
<path d="M511.21 106.649V93.7727H524.088V106.649H511.21ZM512.897 95.4595V104.962H522.401V95.4595H512.897Z" fill="#FEB14B"/>
<path d="M505.773 94.6128H494.582V105.802H505.773V94.6128Z" fill="#FEB14B"/>
<path d="M488.298 94.6128H477.107V105.802H488.298V94.6128Z" fill="white" fill-opacity="0.5"/>
<path d="M470.823 94.6128H459.632V105.802H470.823V94.6128Z" fill="#FEB14B"/>
<path d="M453.355 94.6128H442.164V105.802H453.355V94.6128Z" fill="#FEB14B"/>
<path d="M680.488 112.084H669.297V123.273H680.488V112.084Z" fill="#FEB14B"/>
<path d="M628.07 112.084H616.879V123.273H628.07V112.084Z" fill="#FEB14B"/>
<path d="M610.602 112.084H599.411V123.273H610.602V112.084Z" fill="#FEB14B"/>
<path d="M593.127 112.084H581.936V123.273H593.127V112.084Z" fill="#FEB14B"/>
<path d="M575.659 112.084H564.468V123.273H575.659V112.084Z" fill="#FEB14B"/>
<path d="M546.152 124.114V111.237H559.031V124.114H546.152ZM547.84 112.924V122.427H557.344V112.924H547.84Z" fill="white"/>
<path d="M511.21 124.114V111.237H524.088V124.114H511.21ZM512.897 112.924V122.427H522.401V112.924H512.897Z" fill="#FEB14B"/>
<path d="M470.823 112.084H459.632V123.273H470.823V112.084Z" fill="#FEB14B"/>
<path d="M435.88 112.084H424.689V123.273H435.88V112.084Z" fill="#FEB14B"/>
<path d="M418.412 112.084H407.221V123.273H418.412V112.084Z" fill="#FEB14B"/>
<path d="M383.469 112.084H372.278V123.273H383.469V112.084Z" fill="#FEB14B"/>
<path d="M663.02 129.549H651.828V140.738H663.02V129.549Z" fill="#FEB14B"/>
<path d="M610.602 129.549H599.411V140.738H610.602V129.549Z" fill="white" fill-opacity="0.5"/>
<path d="M575.659 129.549H564.468V140.738H575.659V129.549Z" fill="#FEB14B"/>
<path d="M546.152 141.585V128.708H559.031V141.585H546.152ZM547.84 130.395V139.898H557.344V130.395H547.84Z" fill="#FEB14B"/>
<path d="M528.678 141.585V128.708H541.556V141.585H528.678ZM530.365 130.395V139.898H539.869V130.395H530.365Z" fill="#FEB14B"/>
<path d="M511.21 141.585V128.708H524.088V141.585H511.21ZM512.897 130.395V139.898H522.401V130.395H512.897Z" fill="#FEB14B"/>
<path d="M505.773 129.549H494.582V140.738H505.773V129.549Z" fill="#FEB14B"/>
<path d="M488.298 129.549H477.107V140.738H488.298V129.549Z" fill="#FEB14B"/>
<path d="M453.355 129.549H442.164V140.738H453.355V129.549Z" fill="#FEB14B"/>
<path d="M435.88 129.549H424.689V140.738H435.88V129.549Z" fill="#FEB14B"/>
<path d="M418.412 129.549H407.221V140.738H418.412V129.549Z" fill="#FEB14B"/>
<path d="M400.937 129.549H389.746V140.738H400.937V129.549Z" fill="#FEB14B"/>
<path d="M383.469 129.549H372.278V140.738H383.469V129.549Z" fill="#FEB14B"/>
<path d="M628.07 147.02H616.879V158.209H628.07V147.02Z" fill="#FEB14B"/>
<path d="M610.602 147.02H599.411V158.209H610.602V147.02Z" fill="white" fill-opacity="0.5"/>
<path d="M593.127 147.02H581.936V158.209H593.127V147.02Z" fill="#FEB14B"/>
<path d="M575.659 147.02H564.468V158.209H575.659V147.02Z" fill="#FEB14B"/>
<path d="M476.26 159.049V146.173H489.138V159.049H476.26ZM477.947 147.86V157.363H487.451V147.86H477.947Z" fill="#FEB14B"/>
<path d="M441.317 159.049V146.173H454.195V159.049H441.317ZM443.004 147.86V157.363H452.508V147.86H443.004Z" fill="#FEB14B"/>
<path d="M423.849 159.049V146.173H436.727V159.049H423.849ZM425.536 147.86V157.363H435.04V147.86H425.536Z" fill="#FEB14B"/>
<path d="M400.937 147.02H389.746V158.209H400.937V147.02Z" fill="#FEB14B"/>
<path d="M366.078 8.26904H354.886V19.4585H366.078V8.26904Z" fill="#FEB14B"/>
<path d="M331.135 8.26904H319.943V19.4585H331.135V8.26904Z" fill="#FEB14B"/>
<path d="M296.192 8.26904H285V19.4585H296.192V8.26904Z" fill="#FEB14B"/>
<path d="M313.667 25.7335H302.475V36.923H313.667V25.7335Z" fill="white" fill-opacity="0.5"/>
<path d="M348.61 43.2051H337.418V54.3946H348.61V43.2051Z" fill="#FEB14B"/>
<path d="M348.61 60.6694H337.418V71.8589H348.61V60.6694Z" fill="#FEB14B"/>
<path d="M296.192 60.6694H285V71.8589H296.192V60.6694Z" fill="#FEB14B"/>
<path d="M645.545 164.484H634.354V175.674H645.545V164.484Z" fill="#FEB14B"/>
<path d="M610.602 164.484H599.411V175.674H610.602V164.484Z" fill="#FEB14B"/>
<path d="M593.127 164.484H581.936V175.674H593.127V164.484Z" fill="#FEB14B"/>
<path d="M546.152 176.521V163.645H559.031V176.521H546.152ZM547.84 165.331V174.834H557.344V165.331H547.84Z" fill="#FEB14B"/>
<path d="M528.678 176.521V163.645H541.556V176.521H528.678ZM530.365 165.331V174.834H539.869V165.331H530.365Z" fill="#FEB14B"/>
<path d="M511.21 176.521V163.645H524.088V176.521H511.21ZM512.897 165.331V174.834H522.401V165.331H512.897Z" fill="#FEB14B"/>
<path d="M458.792 176.521V163.645H471.67V176.521H458.792ZM460.479 165.331V174.834H469.983V165.331H460.479Z" fill="#FEB14B"/>
<path d="M645.545 181.956H634.354V193.145H645.545V181.956Z" fill="#FEB14B"/>
<path d="M616.038 193.985V181.109H628.917V193.985H616.038ZM617.726 182.796V192.298H627.23V182.796H617.726Z" fill="white"/>
<path d="M610.602 181.956H599.411V193.145H610.602V181.956Z" fill="#FEB14B"/>
<path d="M511.21 193.985V181.109H524.088V193.985H511.21ZM512.897 182.796V192.298H522.401V182.796H512.897Z" fill="#FEB14B"/>
<path d="M476.26 193.985V181.109H489.138V193.985H476.26ZM477.947 182.796V192.298H487.451V182.796H477.947Z" fill="#FEB14B"/>
<path d="M458.792 193.985V181.109H471.67V193.985H458.792ZM460.479 182.796V192.298H469.983V182.796H460.479Z" fill="#FEB14B"/>
</g>
</g>
</g>
<defs>
<clipPath id="clip0_18_750">
<rect width="720" height="305" fill="white" transform="translate(0 -50)"/>
</clipPath>
<clipPath id="clip1_18_750">
<rect width="780" height="531" fill="white" transform="translate(285 -308)"/>
</clipPath>
</defs>
</svg>
